<mxfile host="app.diagrams.net" agent="Mozilla/5.0 (X11; Ubuntu; Linux x86_64; rv:141.0) Gecko/20100101 Firefox/141.0" version="28.0.7">
  <diagram name="Page-1" id="qBerdW8tIHPhtDbVmsvb">
    <mxGraphModel dx="2011" dy="1200" grid="1" gridSize="10" guides="1" tooltips="1" connect="1" arrows="1" fold="1" page="1" pageScale="1" pageWidth="850" pageHeight="1100" math="0" shadow="0">
      <root>
        <mxCell id="0" />
        <mxCell id="1" parent="0" />
        <mxCell id="fvFxRy8mnweWSK4BVMKE-34" value="" style="rounded=1;whiteSpace=wrap;html=1;dashed=1;dashPattern=1 4;" parent="1" vertex="1">
          <mxGeometry x="160" y="180" width="680" height="680" as="geometry" />
        </mxCell>
        <mxCell id="fvFxRy8mnweWSK4BVMKE-35" style="edgeStyle=orthogonalEdgeStyle;rounded=0;orthogonalLoop=1;jettySize=auto;html=1;exitX=1;exitY=0.5;exitDx=0;exitDy=0;entryX=0;entryY=0.5;entryDx=0;entryDy=0;" parent="1" source="fvFxRy8mnweWSK4BVMKE-1" target="fvFxRy8mnweWSK4BVMKE-2" edge="1">
          <mxGeometry relative="1" as="geometry" />
        </mxCell>
        <mxCell id="fvFxRy8mnweWSK4BVMKE-1" value="user" style="rounded=1;whiteSpace=wrap;html=1;" parent="1" vertex="1">
          <mxGeometry x="20" y="340" width="120" height="60" as="geometry" />
        </mxCell>
        <mxCell id="fvFxRy8mnweWSK4BVMKE-36" style="edgeStyle=orthogonalEdgeStyle;rounded=0;orthogonalLoop=1;jettySize=auto;html=1;exitX=1;exitY=0.5;exitDx=0;exitDy=0;entryX=0;entryY=0.5;entryDx=0;entryDy=0;" parent="1" source="fvFxRy8mnweWSK4BVMKE-2" target="fvFxRy8mnweWSK4BVMKE-4" edge="1">
          <mxGeometry relative="1" as="geometry" />
        </mxCell>
        <mxCell id="fvFxRy8mnweWSK4BVMKE-37" style="edgeStyle=orthogonalEdgeStyle;rounded=0;orthogonalLoop=1;jettySize=auto;html=1;entryX=0;entryY=0.5;entryDx=0;entryDy=0;" parent="1" source="fvFxRy8mnweWSK4BVMKE-2" target="fvFxRy8mnweWSK4BVMKE-3" edge="1">
          <mxGeometry relative="1" as="geometry">
            <Array as="points">
              <mxPoint x="240" y="270" />
            </Array>
          </mxGeometry>
        </mxCell>
        <mxCell id="fvFxRy8mnweWSK4BVMKE-38" style="edgeStyle=orthogonalEdgeStyle;rounded=0;orthogonalLoop=1;jettySize=auto;html=1;entryX=0;entryY=0.5;entryDx=0;entryDy=0;" parent="1" source="fvFxRy8mnweWSK4BVMKE-2" target="fvFxRy8mnweWSK4BVMKE-7" edge="1">
          <mxGeometry relative="1" as="geometry">
            <Array as="points">
              <mxPoint x="240" y="570" />
            </Array>
          </mxGeometry>
        </mxCell>
        <mxCell id="fvFxRy8mnweWSK4BVMKE-2" value="gateway" style="rounded=1;whiteSpace=wrap;html=1;" parent="1" vertex="1">
          <mxGeometry x="180" y="340" width="120" height="60" as="geometry" />
        </mxCell>
        <mxCell id="fvFxRy8mnweWSK4BVMKE-3" value="url generator" style="rounded=1;whiteSpace=wrap;html=1;" parent="1" vertex="1">
          <mxGeometry x="330" y="240" width="120" height="60" as="geometry" />
        </mxCell>
        <mxCell id="fvFxRy8mnweWSK4BVMKE-12" value="" style="edgeStyle=orthogonalEdgeStyle;rounded=0;orthogonalLoop=1;jettySize=auto;html=1;" parent="1" source="fvFxRy8mnweWSK4BVMKE-4" target="fvFxRy8mnweWSK4BVMKE-11" edge="1">
          <mxGeometry relative="1" as="geometry">
            <Array as="points">
              <mxPoint x="550" y="370" />
              <mxPoint x="550" y="370" />
            </Array>
          </mxGeometry>
        </mxCell>
        <mxCell id="fvFxRy8mnweWSK4BVMKE-4" value="url generator" style="rounded=1;whiteSpace=wrap;html=1;" parent="1" vertex="1">
          <mxGeometry x="330" y="340" width="120" height="60" as="geometry" />
        </mxCell>
        <mxCell id="fvFxRy8mnweWSK4BVMKE-27" style="edgeStyle=orthogonalEdgeStyle;rounded=0;orthogonalLoop=1;jettySize=auto;html=1;entryX=0;entryY=0.5;entryDx=0;entryDy=0;exitX=0.5;exitY=1;exitDx=0;exitDy=0;" parent="1" source="fvFxRy8mnweWSK4BVMKE-7" target="fvFxRy8mnweWSK4BVMKE-26" edge="1">
          <mxGeometry relative="1" as="geometry" />
        </mxCell>
        <mxCell id="fvFxRy8mnweWSK4BVMKE-6" value="redirector" style="rounded=1;whiteSpace=wrap;html=1;" parent="1" vertex="1">
          <mxGeometry x="330" y="440" width="120" height="60" as="geometry" />
        </mxCell>
        <mxCell id="fvFxRy8mnweWSK4BVMKE-22" style="edgeStyle=orthogonalEdgeStyle;rounded=0;orthogonalLoop=1;jettySize=auto;html=1;" parent="1" source="fvFxRy8mnweWSK4BVMKE-7" edge="1">
          <mxGeometry relative="1" as="geometry">
            <mxPoint x="510" y="520" as="targetPoint" />
            <Array as="points">
              <mxPoint x="480" y="570" />
              <mxPoint x="480" y="520" />
            </Array>
          </mxGeometry>
        </mxCell>
        <mxCell id="fvFxRy8mnweWSK4BVMKE-7" value="redirector" style="rounded=1;whiteSpace=wrap;html=1;" parent="1" vertex="1">
          <mxGeometry x="330" y="540" width="120" height="60" as="geometry" />
        </mxCell>
        <mxCell id="fvFxRy8mnweWSK4BVMKE-8" value="Dynamodb" style="shape=cylinder3;whiteSpace=wrap;html=1;boundedLbl=1;backgroundOutline=1;size=15;" parent="1" vertex="1">
          <mxGeometry x="650" y="480" width="60" height="80" as="geometry" />
        </mxCell>
        <mxCell id="fvFxRy8mnweWSK4BVMKE-9" value="Redis" style="shape=cylinder3;whiteSpace=wrap;html=1;boundedLbl=1;backgroundOutline=1;size=15;" parent="1" vertex="1">
          <mxGeometry x="510" y="480" width="60" height="80" as="geometry" />
        </mxCell>
        <mxCell id="fvFxRy8mnweWSK4BVMKE-17" style="edgeStyle=orthogonalEdgeStyle;rounded=0;orthogonalLoop=1;jettySize=auto;html=1;entryX=0.5;entryY=0;entryDx=0;entryDy=0;" parent="1" source="fvFxRy8mnweWSK4BVMKE-10" target="fvFxRy8mnweWSK4BVMKE-16" edge="1">
          <mxGeometry relative="1" as="geometry">
            <mxPoint x="680" y="260" as="targetPoint" />
          </mxGeometry>
        </mxCell>
        <mxCell id="fvFxRy8mnweWSK4BVMKE-10" value="Mysql shard" style="shape=cylinder3;whiteSpace=wrap;html=1;boundedLbl=1;backgroundOutline=1;size=15;" parent="1" vertex="1">
          <mxGeometry x="530" y="220" width="60" height="80" as="geometry" />
        </mxCell>
        <mxCell id="fvFxRy8mnweWSK4BVMKE-11" value="Mysql shard" style="shape=cylinder3;whiteSpace=wrap;html=1;boundedLbl=1;backgroundOutline=1;size=15;" parent="1" vertex="1">
          <mxGeometry x="530" y="330" width="60" height="80" as="geometry" />
        </mxCell>
        <mxCell id="fvFxRy8mnweWSK4BVMKE-15" style="edgeStyle=orthogonalEdgeStyle;rounded=0;orthogonalLoop=1;jettySize=auto;html=1;" parent="1" source="fvFxRy8mnweWSK4BVMKE-3" target="fvFxRy8mnweWSK4BVMKE-10" edge="1">
          <mxGeometry relative="1" as="geometry">
            <mxPoint x="500" y="310" as="targetPoint" />
            <Array as="points">
              <mxPoint x="510" y="270" />
              <mxPoint x="510" y="270" />
            </Array>
          </mxGeometry>
        </mxCell>
        <mxCell id="fvFxRy8mnweWSK4BVMKE-18" style="edgeStyle=orthogonalEdgeStyle;rounded=0;orthogonalLoop=1;jettySize=auto;html=1;" parent="1" source="fvFxRy8mnweWSK4BVMKE-16" edge="1">
          <mxGeometry relative="1" as="geometry">
            <mxPoint x="680" y="370" as="targetPoint" />
            <Array as="points">
              <mxPoint x="677" y="370" />
            </Array>
          </mxGeometry>
        </mxCell>
        <mxCell id="fvFxRy8mnweWSK4BVMKE-19" value="" style="edgeStyle=orthogonalEdgeStyle;rounded=0;orthogonalLoop=1;jettySize=auto;html=1;" parent="1" source="fvFxRy8mnweWSK4BVMKE-11" target="fvFxRy8mnweWSK4BVMKE-16" edge="1">
          <mxGeometry relative="1" as="geometry">
            <mxPoint x="590" y="370" as="sourcePoint" />
            <mxPoint x="680" y="370" as="targetPoint" />
            <Array as="points" />
          </mxGeometry>
        </mxCell>
        <mxCell id="fvFxRy8mnweWSK4BVMKE-16" value="change data capture" style="rounded=1;whiteSpace=wrap;html=1;" parent="1" vertex="1">
          <mxGeometry x="620" y="340" width="120" height="60" as="geometry" />
        </mxCell>
        <mxCell id="fvFxRy8mnweWSK4BVMKE-20" style="edgeStyle=orthogonalEdgeStyle;rounded=0;orthogonalLoop=1;jettySize=auto;html=1;entryX=0.5;entryY=0;entryDx=0;entryDy=0;entryPerimeter=0;" parent="1" source="fvFxRy8mnweWSK4BVMKE-16" target="fvFxRy8mnweWSK4BVMKE-8" edge="1">
          <mxGeometry relative="1" as="geometry" />
        </mxCell>
        <mxCell id="fvFxRy8mnweWSK4BVMKE-21" style="edgeStyle=orthogonalEdgeStyle;rounded=0;orthogonalLoop=1;jettySize=auto;html=1;entryX=0;entryY=0.5;entryDx=0;entryDy=0;entryPerimeter=0;" parent="1" source="fvFxRy8mnweWSK4BVMKE-6" target="fvFxRy8mnweWSK4BVMKE-9" edge="1">
          <mxGeometry relative="1" as="geometry" />
        </mxCell>
        <mxCell id="fvFxRy8mnweWSK4BVMKE-23" style="edgeStyle=orthogonalEdgeStyle;rounded=0;orthogonalLoop=1;jettySize=auto;html=1;entryX=0;entryY=0.5;entryDx=0;entryDy=0;entryPerimeter=0;" parent="1" source="fvFxRy8mnweWSK4BVMKE-9" target="fvFxRy8mnweWSK4BVMKE-8" edge="1">
          <mxGeometry relative="1" as="geometry" />
        </mxCell>
        <mxCell id="fvFxRy8mnweWSK4BVMKE-45" style="edgeStyle=orthogonalEdgeStyle;rounded=0;orthogonalLoop=1;jettySize=auto;html=1;entryX=0;entryY=0.5;entryDx=0;entryDy=0;" parent="1" source="fvFxRy8mnweWSK4BVMKE-24" target="fvFxRy8mnweWSK4BVMKE-44" edge="1">
          <mxGeometry relative="1" as="geometry" />
        </mxCell>
        <mxCell id="fvFxRy8mnweWSK4BVMKE-24" value="archiver" style="rounded=1;whiteSpace=wrap;html=1;" parent="1" vertex="1">
          <mxGeometry x="755" y="490" width="70" height="60" as="geometry" />
        </mxCell>
        <mxCell id="fvFxRy8mnweWSK4BVMKE-25" style="edgeStyle=orthogonalEdgeStyle;rounded=0;orthogonalLoop=1;jettySize=auto;html=1;entryX=1;entryY=0.5;entryDx=0;entryDy=0;entryPerimeter=0;" parent="1" source="fvFxRy8mnweWSK4BVMKE-24" target="fvFxRy8mnweWSK4BVMKE-8" edge="1">
          <mxGeometry relative="1" as="geometry">
            <Array as="points">
              <mxPoint x="720" y="520" />
              <mxPoint x="720" y="520" />
            </Array>
          </mxGeometry>
        </mxCell>
        <mxCell id="fvFxRy8mnweWSK4BVMKE-29" style="edgeStyle=orthogonalEdgeStyle;rounded=0;orthogonalLoop=1;jettySize=auto;html=1;entryX=0;entryY=0.5;entryDx=0;entryDy=0;" parent="1" source="fvFxRy8mnweWSK4BVMKE-26" target="fvFxRy8mnweWSK4BVMKE-28" edge="1">
          <mxGeometry relative="1" as="geometry" />
        </mxCell>
        <mxCell id="fvFxRy8mnweWSK4BVMKE-26" value="redirection kafka" style="shape=process;whiteSpace=wrap;html=1;backgroundOutline=1;" parent="1" vertex="1">
          <mxGeometry x="450" y="740" width="120" height="60" as="geometry" />
        </mxCell>
        <mxCell id="fvFxRy8mnweWSK4BVMKE-28" value="flink" style="rounded=1;whiteSpace=wrap;html=1;" parent="1" vertex="1">
          <mxGeometry x="610" y="740" width="70" height="60" as="geometry" />
        </mxCell>
        <mxCell id="fvFxRy8mnweWSK4BVMKE-30" value="Data warehouse" style="shape=cylinder3;whiteSpace=wrap;html=1;boundedLbl=1;backgroundOutline=1;size=15;" parent="1" vertex="1">
          <mxGeometry x="730" y="730" width="80" height="80" as="geometry" />
        </mxCell>
        <mxCell id="fvFxRy8mnweWSK4BVMKE-32" style="edgeStyle=orthogonalEdgeStyle;rounded=0;orthogonalLoop=1;jettySize=auto;html=1;entryX=0;entryY=0.5;entryDx=0;entryDy=0;entryPerimeter=0;" parent="1" source="fvFxRy8mnweWSK4BVMKE-28" target="fvFxRy8mnweWSK4BVMKE-30" edge="1">
          <mxGeometry relative="1" as="geometry">
            <mxPoint x="710" y="770" as="targetPoint" />
          </mxGeometry>
        </mxCell>
        <mxCell id="fvFxRy8mnweWSK4BVMKE-33" value="contains pre computed short urls" style="text;html=1;align=center;verticalAlign=middle;resizable=0;points=[];autosize=1;strokeColor=none;fillColor=none;" parent="1" vertex="1">
          <mxGeometry x="460" y="180" width="200" height="30" as="geometry" />
        </mxCell>
        <mxCell id="fvFxRy8mnweWSK4BVMKE-39" style="edgeStyle=orthogonalEdgeStyle;rounded=0;orthogonalLoop=1;jettySize=auto;html=1;" parent="1" source="fvFxRy8mnweWSK4BVMKE-2" edge="1">
          <mxGeometry relative="1" as="geometry">
            <mxPoint x="332" y="470" as="targetPoint" />
            <Array as="points">
              <mxPoint x="240" y="470" />
            </Array>
          </mxGeometry>
        </mxCell>
        <mxCell id="fvFxRy8mnweWSK4BVMKE-40" value="expires urls as per TTL" style="text;html=1;align=center;verticalAlign=middle;whiteSpace=wrap;rounded=0;" parent="1" vertex="1">
          <mxGeometry x="760" y="560" width="75" height="30" as="geometry" />
        </mxCell>
        <mxCell id="fvFxRy8mnweWSK4BVMKE-41" value="captures the redirection events" style="text;html=1;align=center;verticalAlign=middle;whiteSpace=wrap;rounded=0;" parent="1" vertex="1">
          <mxGeometry x="462.5" y="690" width="97.5" height="30" as="geometry" />
        </mxCell>
        <mxCell id="fvFxRy8mnweWSK4BVMKE-42" value="aggregates the events per short url and then dumps into warehouse" style="text;html=1;align=center;verticalAlign=middle;whiteSpace=wrap;rounded=0;" parent="1" vertex="1">
          <mxGeometry x="568.13" y="680" width="153.75" height="30" as="geometry" />
        </mxCell>
        <mxCell id="fvFxRy8mnweWSK4BVMKE-46" style="edgeStyle=orthogonalEdgeStyle;rounded=0;orthogonalLoop=1;jettySize=auto;html=1;entryX=1;entryY=0;entryDx=0;entryDy=15;entryPerimeter=0;" parent="1" source="fvFxRy8mnweWSK4BVMKE-44" target="fvFxRy8mnweWSK4BVMKE-10" edge="1">
          <mxGeometry relative="1" as="geometry">
            <Array as="points">
              <mxPoint x="790" y="235" />
            </Array>
          </mxGeometry>
        </mxCell>
        <mxCell id="fvFxRy8mnweWSK4BVMKE-44" value="expired urls" style="shape=process;whiteSpace=wrap;html=1;backgroundOutline=1;rotation=-90;" parent="1" vertex="1">
          <mxGeometry x="730" y="350" width="120" height="60" as="geometry" />
        </mxCell>
      </root>
    </mxGraphModel>
  </diagram>
</mxfile>
